<?xml version="1.0" encoding="UTF-8"?>
<svg width="147px" height="108px" viewBox="0 0 147 108" version="1.1" xmlns="http://www.w3.org/2000/svg" xmlns:xlink="http://www.w3.org/1999/xlink">
    <!-- Generator: Sketch 53.2 (72643) - https://sketchapp.com -->
    <title>Desktop@2x</title>
    <desc>Created with Sketch.</desc>
    <g id="Page-1" stroke="none" stroke-width="1" fill="none" fill-rule="evenodd">
        <g id="Home-Screen-(IG)" transform="translate(-318.000000, -2769.000000)">
            <g id="Desktop" transform="translate(318.000000, 2769.000000)">
                <path d="M1.89,1 C1.39846657,1 1,1.39846657 1,1.89 L1,89.11 C1,89.6015334 1.39846657,90 1.89,90 L145.11,90 C145.601533,90 146,89.6015334 146,89.11 L146,1.89 C146,1.39846657 145.601533,1 145.11,1 L1.89,1 Z" id="Rectangle" stroke="#000000" stroke-width="2"></path>
                <rect id="Rectangle" fill="#ADC965" x="9" y="8" width="127" height="62" rx="1.89"></rect>
                <ellipse id="Oval" fill="#000000" cx="72.5" cy="79.5" rx="4.5" ry="3.5"></ellipse>
                <rect id="Rectangle" fill="#000000" x="53" y="91" width="40" height="15"></rect>
                <rect id="Rectangle" fill="#000000" x="36" y="106" width="76" height="2" rx="1"></rect>
                <text id="&lt;/&gt;" transform="translate(73.000000, 38.500000) rotate(-360.000000) translate(-73.000000, -38.500000) " font-family="NotoSansKR-Regular, Noto Sans KR Regular" font-size="32" font-weight="normal" letter-spacing="-0.440221977" fill="#000000">
                    <tspan x="48" y="52">&lt;/&gt;</tspan>
                </text>
            </g>
        </g>
    </g>
</svg>