<?xml version="1.0" encoding="UTF-8"?>
<svg width="103px" height="116px" viewBox="0 0 103 116" version="1.1" xmlns="http://www.w3.org/2000/svg" xmlns:xlink="http://www.w3.org/1999/xlink">
    <!-- Generator: Sketch 53.2 (72643) - https://sketchapp.com -->
    <title>Financial-Literacy-icon@2x</title>
    <desc>Created with Sketch.</desc>
    <g id="Page-1" stroke="none" stroke-width="1" fill="none" fill-rule="evenodd">
        <g id="Home-Screen-(IG)" transform="translate(-1000.000000, -2505.000000)">
            <g id="Financial-Literacy-icon" transform="translate(1002.000000, 2507.000000)">
                <path d="M1.28,-1 L97.72,-1 C98.9792092,-1 100,0.0207907704 100,1.28 L100,65.0915254 C100,69.1784326 96.6869071,72.4915254 92.6,72.4915254 L6.4,72.4915254 C2.31309285,72.4915254 -1,69.1784326 -1,65.0915254 L-1,1.28 C-1,0.0207907704 0.0207907704,-1 1.28,-1 Z" id="Rectangle" stroke="#000000" stroke-width="2"></path>
                <rect id="Rectangle" stroke="#000000" stroke-width="2" fill="#C4E6FF" x="9.35714286" y="42.220339" width="13.4285714" height="17.3220339" rx="1.28"></rect>
                <rect id="Rectangle-Copy-14" stroke="#000000" stroke-width="2" fill="#C4E6FF" x="40.2142857" y="22.8983051" width="13.4285714" height="36.6440678" rx="1.28"></rect>
                <rect id="Rectangle-Copy-15" stroke="#000000" stroke-width="2" fill="#C4E6FF" x="71.0714286" y="7.44067797" width="13.4285714" height="52.1016949" rx="1.28"></rect>
                <rect id="Rectangle" fill="#000000" x="46" y="71" width="2" height="37.3559322"></rect>
                <ellipse id="Oval" fill="#000000" cx="46.9285714" cy="108.847458" rx="5.14285714" ry="5.15254237"></ellipse>
            </g>
        </g>
    </g>
</svg>