<?xml version="1.0" encoding="UTF-8"?>
<svg width="125px" height="121px" viewBox="0 0 125 121" version="1.1" xmlns="http://www.w3.org/2000/svg" xmlns:xlink="http://www.w3.org/1999/xlink">
    <!-- Generator: Sketch 53.2 (72643) - https://sketchapp.com -->
    <title>Product Design icon@2x</title>
    <desc>Created with Sketch.</desc>
    <g id="Page-1" stroke="none" stroke-width="1" fill="none" fill-rule="evenodd">
        <g id="Home-Screen-(IG)" transform="translate(-329.000000, -2217.000000)">
            <g id="Product-Design-icon" transform="translate(329.000000, 2217.000000)">
                <rect id="Rectangle" stroke="#000000" stroke-width="2" x="1" y="13.9493671" width="123" height="80.9367089" rx="3.2"></rect>
                <g id="Group-7" transform="translate(19.230769, 40.063291)" fill="#F86531" stroke="#000000" stroke-width="2">
                    <polygon id="Triangle" points="13.4706096 2.39240506 26.9412192 30.3037975 0 30.3037975"></polygon>
                    <polygon id="Path-7" points="20.5535224 14.1161244 26.9412192 0.250766416 42.5644475 30.3037975 26.9412192 30.3037975"></polygon>
                </g>
                <rect id="Rectangle" fill="#000000" x="74" y="41" width="32.0512821" height="2" rx="1"></rect>
                <rect id="Rectangle-Copy-3" fill="#000000" x="14.4230769" y="0" width="16.025641" height="2" rx="1"></rect>
                <rect id="Rectangle-Copy-10" fill="#000000" x="10.2179487" y="118.21519" width="24.0384615" height="2" rx="1"></rect>
                <rect id="Rectangle-Copy-11" fill="#000000" x="88.7435897" y="118.21519" width="24.0384615" height="2" rx="1"></rect>
                <rect id="Rectangle-Copy-4" fill="#000000" x="56.0897436" y="0" width="16.025641" height="2" rx="1"></rect>
                <rect id="Rectangle-Copy-5" fill="#000000" x="96.1538462" y="0" width="16.025641" height="2" rx="1"></rect>
                <rect id="Rectangle-Copy" fill="#000000" x="74" y="55" width="32.0512821" height="2" rx="1"></rect>
                <rect id="Rectangle-Copy-2" fill="#000000" x="74" y="69" width="32.0512821" height="2" rx="1"></rect>
                <rect id="Rectangle" stroke="#000000" stroke-width="6.4" x="24.0333333" y="4.98481013" width="1" height="4.76455696"></rect>
                <rect id="Rectangle-Copy-8" stroke="#000000" stroke-width="6.4" x="19.225641" y="99.0860759" width="1" height="17.5240506"></rect>
                <rect id="Rectangle-Copy-12" stroke="#000000" stroke-width="6.4" x="97.7512821" y="99.0860759" width="1" height="17.5240506"></rect>
                <rect id="Rectangle-Copy-13" stroke="#000000" stroke-width="2" x="106.769231" y="96.8860759" width="1" height="21.9240506"></rect>
                <rect id="Rectangle-Copy-9" stroke="#000000" stroke-width="6.4" x="30.4435897" y="99.0860759" width="1" height="17.5240506"></rect>
                <rect id="Rectangle-Copy-6" stroke="#000000" stroke-width="2" x="63.5" y="2.78481013" width="1" height="9.16455696"></rect>
                <rect id="Rectangle-Copy-7" stroke="#000000" stroke-width="2" x="103.564103" y="2.78481013" width="1" height="9.16455696"></rect>
            </g>
        </g>
    </g>
</svg>