<?xml version="1.0" encoding="UTF-8"?>
<svg width="46px" height="51px" viewBox="0 0 46 51" version="1.1" xmlns="http://www.w3.org/2000/svg" xmlns:xlink="http://www.w3.org/1999/xlink">
    <!-- Generator: Sketch 53.2 (72643) - https://sketchapp.com -->
    <title>Venue icon@2x</title>
    <desc>Created with Sketch.</desc>
    <g id="Page-1" stroke="none" stroke-width="1" fill="none" fill-rule="evenodd">
        <g id="Donate" transform="translate(-604.000000, -373.000000)">
            <g id="Venue-icon" transform="translate(605.000000, 373.000000)">
                <path d="M27.1377246,49.9796698 L27.1377246,34.5429889 C27.1377246,34.2519646 26.9018027,34.0160428 26.6107784,34.0160428 L17.1257485,34.0160428 C16.8347242,34.0160428 16.5988024,34.2519646 16.5988024,34.5429889 L16.5988024,49.9796698 L7.55077717,49.9796698 L7.55077717,26.9208463 L0.531036343,26.9208463 C0.240012044,26.9208463 0.00409023504,26.6849245 0.00409023504,26.3939002 C0.00409023504,26.2678451 0.0492782368,26.1459663 0.131454708,26.0503791 L21.510477,1.18242872 C21.7001984,0.961745873 22.0328968,0.936646698 22.2535797,1.12636814 C22.2736478,1.14362073 22.2923877,1.16236061 22.3096402,1.18242872 L43.6886625,26.0503791 C43.8783839,26.271062 43.8532848,26.6037604 43.6326019,26.7934818 C43.5370148,26.8756583 43.4151359,26.9208463 43.2890809,26.9208463 L37.5867053,26.9208463 L37.5867053,49.9796698 L27.1377246,49.9796698 Z" id="Combined-Shape" stroke="#000000" stroke-width="1.05389222"></path>
                <path d="M22.4056325,4.89559635 L38.0146809,23.7195869 C38.2004445,23.9436116 38.1694278,24.2758105 37.9454031,24.4615741 C37.8508506,24.539978 37.731879,24.5828877 37.6090484,24.5828877 L6.39095156,24.5828877 C6.09992726,24.5828877 5.86400545,24.3469659 5.86400545,24.0559416 C5.86400545,23.9331111 5.90691517,23.8141394 5.98531906,23.7195869 L21.5943675,4.89559635 C21.7801311,4.6715717 22.11233,4.64055497 22.3363547,4.82631853 C22.3615486,4.8472096 22.3847414,4.87040242 22.4056325,4.89559635 Z" id="Triangle" fill="#F86531"></path>
                <path d="M10.011976,24.5828877 L14.491018,24.5828877 L14.491018,47.1147651 C14.491018,47.4057894 14.2550962,47.6417112 13.9640719,47.6417112 L10.5389222,47.6417112 C10.2478979,47.6417112 10.011976,47.4057894 10.011976,47.1147651 L10.011976,24.5828877 Z" id="Rectangle" fill="#F86531"></path>
                <path d="M29.7724551,24.5828877 L34.251497,24.5828877 L34.251497,47.1147651 C34.251497,47.4057894 34.0155752,47.6417112 33.7245509,47.6417112 L30.2994012,47.6417112 C30.0083769,47.6417112 29.7724551,47.4057894 29.7724551,47.1147651 L29.7724551,24.5828877 Z" id="Rectangle-Copy-16" fill="#F86531"></path>
                <path d="M27.1377246,49.9796698 L27.1377246,34.5429889 C27.1377246,34.2519646 26.9018027,34.0160428 26.6107784,34.0160428 L17.1257485,34.0160428 C16.8347242,34.0160428 16.5988024,34.2519646 16.5988024,34.5429889 L16.5988024,49.9796698 L7.55077717,49.9796698 L7.55077717,26.9208463 L0.531036343,26.9208463 C0.240012044,26.9208463 0.00409023504,26.6849245 0.00409023504,26.3939002 C0.00409023504,26.2678451 0.0492782368,26.1459663 0.131454708,26.0503791 L21.510477,1.18242872 C21.7001984,0.961745873 22.0328968,0.936646698 22.2535797,1.12636814 C22.2736478,1.14362073 22.2923877,1.16236061 22.3096402,1.18242872 L43.6886625,26.0503791 C43.8783839,26.271062 43.8532848,26.6037604 43.6326019,26.7934818 C43.5370148,26.8756583 43.4151359,26.9208463 43.2890809,26.9208463 L37.5867053,26.9208463 L37.5867053,49.9796698 L27.1377246,49.9796698 Z" id="Combined-Shape-Copy" stroke="#000000" stroke-width="2"></path>
                <path d="M10.011976,24.5828877 L14.491018,24.5828877 L14.491018,47.1147651 C14.491018,47.4057894 14.2550962,47.6417112 13.9640719,47.6417112 L10.5389222,47.6417112 C10.2478979,47.6417112 10.011976,47.4057894 10.011976,47.1147651 L10.011976,24.5828877 Z" id="Rectangle-Copy-18" fill="#F86531"></path>
                <path d="M29.7724551,24.5828877 L34.251497,24.5828877 L34.251497,47.1147651 C34.251497,47.4057894 34.0155752,47.6417112 33.7245509,47.6417112 L30.2994012,47.6417112 C30.0083769,47.6417112 29.7724551,47.4057894 29.7724551,47.1147651 L29.7724551,24.5828877 Z" id="Rectangle-Copy-17" fill="#F86531"></path>
                <rect id="Rectangle" fill="#F86531" x="13.9640719" y="18.5561497" width="15.8083832" height="12.8395722"></rect>
            </g>
        </g>
    </g>
</svg>